<svg width="19" height="19" viewBox="0 0 19 19" fill="none" xmlns="http://www.w3.org/2000/svg">
<path d="M16.124 9.05098L9.11406 2.96689C9.06025 2.92051 8.9916 2.89453 8.91924 2.89453H7.27715C7.13984 2.89453 7.07676 3.06523 7.18066 3.1543L13.6785 8.79492H2.82031C2.73867 8.79492 2.67188 8.86172 2.67188 8.94336V10.0566C2.67188 10.1383 2.73867 10.2051 2.82031 10.2051H13.6767L7.17881 15.8457C7.0749 15.9366 7.13799 16.1055 7.27529 16.1055H8.97305C9.0083 16.1055 9.04355 16.0925 9.06953 16.0684L16.124 9.94902C16.1883 9.89317 16.2398 9.82418 16.2751 9.74672C16.3103 9.66926 16.3286 9.58512 16.3286 9.5C16.3286 9.41488 16.3103 9.33074 16.2751 9.25328C16.2398 9.17582 16.1883 9.10683 16.124 9.05098Z" fill="#1E3173"/>
</svg>
