<svg width="20" height="20" fill="none" xmlns="http://www.w3.org/2000/svg"><g clip-path="url(#clip0_1_2956)"><path d="M10 .625C4.83.625.625 4.831.625 10c0 5.17 4.206 9.375 9.375 9.375 5.17 0 9.375-4.205 9.375-9.375S15.17.625 10 .625zm6.265 14.439a9.386 9.386 0 00-1.186-.914 9.384 9.384 0 00.942-3.393h2.003a8.024 8.024 0 01-1.76 4.307zM1.977 10.757h1.968a9.397 9.397 0 00.95 3.41 9.46 9.46 0 00-1.16.897 8.019 8.019 0 01-1.758-4.307zm1.758-5.82c.363.328.75.628 1.16.895a9.381 9.381 0 00-.964 3.609H1.96a8.022 8.022 0 011.774-4.504zm5.607-1.95v3.015a7.96 7.96 0 01-2.615-.664 8.07 8.07 0 012.615-2.35zm0 4.334v2.12H5.25a7.996 7.996 0 01.8-2.965 9.27 9.27 0 003.293.845zm0 3.436v1.922a9.27 9.27 0 00-3.304.85 8.04 8.04 0 01-.773-2.772h4.077zm0 3.241v3.022a7.972 7.972 0 01-2.629-2.351 7.912 7.912 0 012.63-.67zm1.316 2.994v-2.994a7.95 7.95 0 012.586.652 8.083 8.083 0 01-2.586 2.342zm0-4.313v-1.922H14.7a7.997 7.997 0 01-.778 2.754 9.28 9.28 0 00-3.264-.832zm0-3.238V7.32a9.27 9.27 0 003.266-.832c.451.924.72 1.926.792 2.952h-4.058zm0-3.439V3.007a8.082 8.082 0 012.588 2.343 7.954 7.954 0 01-2.588.652zm3.259-1.95a9.402 9.402 0 00-2.162-1.918 8.04 8.04 0 013.6 1.85c-.295.266-.61.51-.942.729a8.944 8.944 0 00-.496-.661zm-7.869 0a9.222 9.222 0 00-.486.645 8.068 8.068 0 01-.918-.713 8.046 8.046 0 013.549-1.838 9.381 9.381 0 00-2.145 1.906zm-.485 11.251a9.391 9.391 0 002.631 2.552 8.043 8.043 0 01-3.55-1.838 8.13 8.13 0 01.919-.714zm8.366.63c.171-.208.333-.424.485-.646.332.22.646.464.942.73a8.046 8.046 0 01-3.601 1.85 9.399 9.399 0 002.174-1.935zm2.106-6.492a9.367 9.367 0 00-.956-3.591 9.355 9.355 0 001.186-.913A8.02 8.02 0 0118.04 9.44h-2.005z" fill="#fff"/></g><defs><clipPath id="clip0_1_2956"><path fill="#fff" d="M0 0h20v20H0z"/></clipPath></defs></svg>